<?xml version="1.0" encoding="utf-8"?>
<!-- Generator: Adobe Illustrator 22.0.1, SVG Export Plug-In . SVG Version: 6.00 Build 0)  -->
<svg version="1.1" id="Layer_1" xmlns="http://www.w3.org/2000/svg" xmlns:xlink="http://www.w3.org/1999/xlink" x="0px" y="0px"
	 viewBox="0 0 250 50" style="enable-background:new 0 0 250 50;" xml:space="preserve">
<style type="text/css">
	.st0{fill:#87AAAD;}
</style>
<g>
	<g>
		<path class="st0" d="M213.7,35.7c-7.2-0.2-12.8-3.5-17.9-7.8c-8.5-7.2-14.7-7.2-23.3,0.1c-4.9,4.2-10.1,7.6-16.9,7.8
			c-7.5,0.3-13.3-3.1-18.6-7.7c-8.2-7.1-15-7.1-23,0c-12.1,10.8-23.9,10.8-36.1,0c-7.6-6.7-14.9-6.7-22.5,0.1
			c-4.5,4-9.4,7.3-15.5,8.1c-8,1-14.6-2.2-20.1-7.7c-0.9-0.9-0.9-3.9-0.1-5.2c1.2-2.1,3.4-1.8,5.5-0.5c2.8,1.8,5.6,4,8.7,5
			c5.7,1.8,10.4-0.8,14.6-4.6c5.3-4.7,11-8.2,18.4-8.2c7,0.1,12.5,3.5,17.6,7.9c8.1,7,14.9,7,23-0.2c8-7.2,17-10.5,27.4-5.6
			c2.9,1.4,5.6,3.4,8.1,5.5c8.4,7.1,15.2,7.1,23.4-0.2c3.9-3.4,8.2-6.2,13.3-7.4c8.6-1.9,15.4,1.6,21.7,6.9c9,7.5,14.4,7.7,23.6,0.5
			c2.1-1.6,4.1-2.2,6.1-0.2c1.8,1.8,1.5,4.1-0.9,6.3C225.5,32.8,220,35.4,213.7,35.7z"/>
	</g>
</g>
</svg>
