<?xml version="1.0" encoding="utf-8"?>
<!-- Generator: Adobe Illustrator 22.0.1, SVG Export Plug-In . SVG Version: 6.00 Build 0)  -->
<svg version="1.1" id="Layer_1" xmlns="http://www.w3.org/2000/svg" xmlns:xlink="http://www.w3.org/1999/xlink" x="0px" y="0px"
	 viewBox="0 0 1000 1000" style="enable-background:new 0 0 1000 1000;" xml:space="preserve">
<style type="text/css">
	.st0{fill:none;stroke:#FFFFFF;stroke-miterlimit:10;}
	.st1{fill:#CED8D8;stroke:#FFFFFF;stroke-miterlimit:10;}
	.st2{fill:#3A3A3A;}
	.st3{fill:#FFFFFF;}
</style>
<rect class="st0" width="1000" height="1000"/>
<circle class="st1" cx="500" cy="500" r="450"/>
<g>
	<path class="st2" d="M931.4,530.4c-3.6-32.1-7.3-65.4-10.4-98.4c-1.7-18.4-8.6-33-20.3-43.2c-2.1-1.8-4.8-2.4-7.3-2l-32.9-18
		l-3.6-38.5c-0.8-8.4-6-15.9-14.8-21.1c-4.2-2.5-9.6-1.1-12.1,3c-2.5,4.2-1.1,9.6,3,12.1c2.2,1.3,6,4.1,6.3,7.7l8.8,93.4
		L603.6,655.6l-284.1-181l-8.8-93c-0.7-7.3,13.1-17.1,31.8-18.8l229.2-21.6c4.8-0.5,8.4-4.7,7.9-9.6c-0.5-4.8-4.7-8.4-9.6-7.9
		l-143.8,13.6l4.2-3.5l56.9-46.2c0.3-0.2,0.6-0.3,0.9-0.5l14.5-11.9l0,0l0,0l60-49.4l35.9,19.7c4.3,2.3,9.6,0.8,11.9-3.5
		c2.3-4.3,0.8-9.6-3.5-11.9l-41.2-22.5c-3.2-1.7-7-1.4-9.8,0.9l-64.5,53.1l0,0L419.3,320l0,0c0,0-0.1,0-0.1,0.1l-22.5,18.7
		c-0.5,0.4-0.9,0.8-1.3,1.3l-54.7,5.2c-28.5,2.7-49.4,19.4-47.6,38l3.4,36.4l-32.8,26.6l0,0c-0.7,0.6-1.4,1.3-1.9,2.1
		c0,0.1-0.1,0.2-0.1,0.2c-0.9,0.7-1.7,1.7-2.3,2.8l-0.5,1c-5.7,10.9-12.1,23.3-10.9,36.1c3.1,32.9,5.7,66.4,8.2,98.8
		c6.3,82,12.8,166.9,28.5,251.7c0.1,0.7,0.3,1.3,0.6,2c5.6,12.6,19.4,24.1,32.9,27.2c0.8,0.2,1.6,0.3,2.3,0.2
		c91.6-3.8,182.7-10.6,270.8-18.9c115.1-10.9,225.2-24.3,324.9-37.3c13.9-1.3,30.7-15.5,33.6-34.6c0.1-0.4,0.1-0.9,0.1-1.4
		C949.6,692.6,940.3,610.2,931.4,530.4z M862.5,389.8l14.7,8l-12.8,12.1L862.5,389.8z M298.8,443l1.8,19.6l-14.4-9.2L298.8,443z
		 M914.2,794.7c-175.5,22.8-383.1,47.2-593.2,56c-7.5-2.2-15.8-9.1-19.3-16.1c-15.3-83.6-21.8-167.6-28-248.8
		c-2.5-32.5-5.1-66.1-8.2-99.1c-0.6-6.3,2.7-13.9,6.5-21.5l315.6,201.1L338.9,814.7c-4.2,2.5-5.5,7.9-3,12.1c2.5,4.2,7.9,5.5,12.1,3
		l257.3-153.4L886.6,779c1.3,0.5,2.6,0.6,3.8,0.5c3.3-0.3,6.2-2.4,7.4-5.7c1.7-4.6-0.7-9.6-5.2-11.3l-271.7-99l272.7-256.8
		c5.5,6.9,8.9,15.9,9.9,27c3.1,33.2,6.9,66.5,10.5,98.8c8.9,79,18,160.8,18.3,243.2C930.3,786.2,920.4,794.1,914.2,794.7z"/>
	<path class="st2" d="M598.5,330.1c5.6,59.8,58.9,103.9,118.7,98.2c16.6-1.6,32.2-6.7,46.3-15.3c4.6-2.8,6.1-8.9,3.3-13.5
		c-2.8-4.6-8.8-6.1-13.5-3.3c-11.6,7-24.4,11.3-38,12.5c-49,4.6-92.7-31.5-97.3-80.6c-4.6-49,31.5-92.7,80.6-97.3
		c49-4.6,92.7,31.5,97.3,80.6c0.8,8.5,0.3,17-1.2,25.2c-0.4,1.7-1,3.7-2.2,5.7c-4.8,8.5-14.2,10.8-16.5,11.3
		c-10.6,1-17.3-4.6-18.1-12.9c-0.2-1.8-0.2-4.8,0-7.2l4.1-52c0.9-10.3-7.1-16.2-14.9-15.5c-7.8,0.7-12.6,5.8-13.2,15.1l0,0.2
		c-7.2-8.1-17.3-14.1-33.1-12.6c-26.8,2.5-49,30.1-46,62.4c2.6,27.3,22.8,42.5,46.2,40.3c11.5-1.1,20.4-5.9,27.2-11.7
		c11,13.6,27.7,21,44.2,19.5c1.3-0.1,2.5-0.3,3.8-0.5c20.3-3.6,31-19.5,33.8-24.3l0,0c0.4-0.6,0.7-1.3,0.9-2
		c4.4-13.9,5.9-28.4,4.5-43c-5.6-59.8-58.9-103.9-118.7-98.2C637,217.1,592.9,270.3,598.5,330.1z M706.9,347.3
		c-12.6,1.2-22.3-6-23.7-20.2c-1.7-18.4,9.6-33.5,24.5-35c12.4-1.2,22.1,6.5,23.4,19.6C732.9,330.5,721.4,346,706.9,347.3z"/>
	<path class="st2" d="M478.3,494.9c-0.5-4.8-4.7-8.4-9.6-7.9l-52.5,5c-4.8,0.5-8.4,4.7-7.9,9.6c0.5,4.8,4.7,8.4,9.6,7.9l52.5-5
		C475.2,504,478.7,499.7,478.3,494.9z"/>
	<path class="st2" d="M630.6,520.6c-0.5-4.8-4.7-8.4-9.6-7.9l-159.3,15c-4.8,0.5-8.4,4.7-7.9,9.6c0.5,4.8,4.7,8.4,9.6,7.9l159.3-15
		C627.5,529.7,631,525.4,630.6,520.6z"/>
	<path class="st2" d="M519,499.9c4.8-0.5,8.4-4.7,7.9-9.6c-0.5-4.8-4.7-8.4-9.6-7.9l-14.9,1.4c-4.8,0.5-8.4,4.7-7.9,9.6
		c0.5,4.8,4.7,8.4,9.6,7.9L519,499.9z"/>
	<path class="st2" d="M685.8,550.9c-0.5-4.8-4.7-8.4-9.6-7.9l-117,11c-4.8,0.5-8.4,4.7-7.9,9.6c0.5,4.8,4.7,8.4,9.6,7.9l117-11
		C682.7,560,686.3,555.7,685.8,550.9z"/>
	<path class="st2" d="M509.8,558.7c-4.8,0.5-8.4,4.7-7.9,9.6c0.5,4.8,4.7,8.4,9.6,7.9l14.9-1.4c4.8-0.5,8.4-4.7,7.9-9.6
		c-0.5-4.8-4.7-8.4-9.6-7.9L509.8,558.7z"/>
	<path class="st2" d="M556.8,608.2l83.1-7.8c4.8-0.5,8.4-4.7,7.9-9.6c-0.5-4.8-4.7-8.4-9.6-7.9l-83.1,7.8c-4.8,0.5-8.4,4.7-7.9,9.6
		C547.7,605.1,552,608.6,556.8,608.2z"/>
	<path class="st2" d="M734.7,510c-0.5-4.8-4.7-8.4-9.6-7.9l-70,6.6c-4.8,0.5-8.4,4.7-7.9,9.6c0.5,4.8,4.7,8.4,9.6,7.9l70-6.6
		C731.6,519.1,735.1,514.9,734.7,510z"/>
	<g>
		<path class="st3" d="M331.5,689.7c9.6-1.3,16.4-9.1,15.1-17.5c-5.8-39.8-10-80-12.8-120.5c-0.6-8.6-8.8-15.3-18.5-14.9
			c-9.7,0.3-17.2,7.8-16.6,16.5c2.8,41.3,7.1,82.4,13,123.1C313,685.1,321.9,691,331.5,689.7z"/>
	</g>
	<path class="st3" d="M354.2,732.4l-1.1-11.8c-0.9-9.7-9.5-16.8-19.2-15.9c-9.7,0.9-16.8,9.5-15.9,19.2l1.1,11.8
		c0.9,9.7,9.5,16.8,19.2,15.9C348,750.7,355.1,742.1,354.2,732.4z"/>
</g>
</svg>
