<?xml version="1.0" encoding="utf-8"?>
<!-- Generator: Adobe Illustrator 22.0.1, SVG Export Plug-In . SVG Version: 6.00 Build 0)  -->
<svg version="1.1" id="Layer_1" xmlns="http://www.w3.org/2000/svg" xmlns:xlink="http://www.w3.org/1999/xlink" x="0px" y="0px"
	 viewBox="0 0 1000 1000" style="enable-background:new 0 0 1000 1000;" xml:space="preserve">
<style type="text/css">
	.st0{fill:#CED8D8;stroke:#FFFFFF;stroke-miterlimit:10;}
	.st1{fill:#3A3A3A;}
	.st2{fill:none;stroke:#3A3A3A;stroke-width:5;stroke-linecap:round;stroke-linejoin:round;stroke-miterlimit:10;}
	.st3{fill:#FFFFFF;}
</style>
<circle class="st0" cx="500" cy="500" r="450"/>
<g>
	<g>
		<path class="st1" d="M815.6,708.7h-11.1V335.5c0-3.2-2.7-5.8-5.9-5.8H199c-3.3,0-6,2.6-6,5.8v373.1h-11.1v-373
			c0-9.3,7.7-17,17.1-17h599.5c9.4,0,17,7.6,17,16.9L815.6,708.7L815.6,708.7z"/>
	</g>
</g>
<g>
	<g>
		<g>
			<path class="st1" d="M122.6,521.3c-1.7,0-3.3-0.8-4.4-2.2c-24.9-32.7-56-84.8-62.9-147.5c-4.1-37,1.9-70,16.9-93
				c17.4-26.7,49-42.1,84.5-41.2c32.8,0.9,64.5,14.1,91.7,26.5c19.3,8.8,38.8,18.4,57.7,27.6c42.1,20.7,85.7,42.1,129.9,56
				c51.1,16.1,125.1,27.8,187.7-7.3c31.4-17.6,53.1-44.4,61-75.4c3.5-13.7,4-28.8,1.3-43.8c-0.5-3,1.5-5.9,4.5-6.4s5.9,1.5,6.4,4.5
				c2.9,16.5,2.4,33.3-1.5,48.5c-8.7,34-32.3,63.2-66.4,82.3c-66.1,37-143.3,24.9-196.4,8.2c-45-14.2-89-35.7-131.5-56.6
				c-18.8-9.2-38.2-18.7-57.4-27.5c-26.2-11.9-56.7-24.7-87.4-25.5c-31.6-0.8-59.6,12.7-74.9,36.1c-13.6,20.8-18.9,51.3-15.2,85.7
				c6.6,60.2,36.7,110.4,60.7,142c1.9,2.4,1.4,5.9-1,7.8C125,520.9,123.8,521.3,122.6,521.3z"/>
		</g>
	</g>
</g>
<g>
	<g>
		<g>
			<path class="st1" d="M830,102.1c-5,0-10.1-1.6-14.4-4.8L779,69.5c-5-3.8-8.2-9.3-9-15.5s0.9-12.3,4.7-17.2
				c7.9-10.1,22.8-12,33-4.2l36.6,27.8c5,3.8,8.2,9.3,9,15.5s-0.9,12.3-4.7,17.2C844,99,837,102.1,830,102.1z M793.5,38.9
				c-3.8,0-7.5,1.6-9.9,4.8c-2,2.5-2.9,5.7-2.5,8.9c0.4,3.2,2.1,6.1,4.7,8.1l36.6,27.8c5.5,4.2,13.4,3.2,17.6-2.2
				c2-2.5,2.9-5.7,2.5-8.9c-0.4-3.2-2.1-6.1-4.7-8.1l-36.6-27.8C798.8,39.7,796.1,38.9,793.5,38.9z"/>
		</g>
	</g>
	<g>
		<g>
			<path class="st1" d="M815.1,169.4c-0.3,0-0.7,0-1-0.1c-3-0.5-5-3.4-4.5-6.5l12.2-67.1c0.5-3,3.4-5,6.5-4.5c3,0.5,5,3.4,4.5,6.5
				l-12.2,67.1C820,167.6,817.7,169.4,815.1,169.4z"/>
		</g>
	</g>
	<g>
		<g>
			<path class="st1" d="M713.5,92.3c-2.1,0-4.1-1.2-5.1-3.3c-1.3-2.8,0-6.1,2.8-7.3l63-28.5c2.8-1.3,6.1,0,7.3,2.8
				c1.3,2.8,0,6.1-2.8,7.3l-63,28.5C715,92.2,714.2,92.3,713.5,92.3z"/>
		</g>
	</g>
	<g>
		<g>
			<path class="st1" d="M713,209c-2.2,0-4.3-1.4-5.2-3.6c-1.1-2.9,0.3-6.1,3.2-7.2l101.4-38.7c2.9-1.1,6.1,0.3,7.2,3.2
				c1.1,2.9-0.3,6.1-3.2,7.2L715,208.6C714.3,208.9,713.6,209,713,209z"/>
		</g>
	</g>
	<g>
		<g>
			<path class="st1" d="M755.3,154.6c-0.1,0-0.2,0-0.3,0c-3.1,0-5.5-2.6-5.5-5.6c0-3.1,2.6-5.5,5.6-5.5h0.1c2.2,0,4.2-1,5.6-2.7
				c1.1-1.4,1.6-3.2,1.4-4.9c-0.2-1.8-1.2-3.4-2.6-4.5c-3.1-2.3-7.5-1.8-9.9,1.2c-1.3,1.7-1.8,3.9-1.2,5.9c0.9,2.9-0.8,6-3.8,6.9
				c-2.9,0.8-6-0.9-6.9-3.8c-1.6-5.5-0.4-11.4,3.1-15.9c6.1-7.7,17.4-9.2,25.3-3.2c3.9,2.9,6.3,7.2,6.9,11.9
				c0.6,4.7-0.7,9.4-3.7,13.2C766.1,152.1,760.9,154.6,755.3,154.6z"/>
		</g>
	</g>
	<g>
		<g>
			<path class="st1" d="M700.8,199.4c-1.2,0-2.4-0.4-3.4-1.2c-2.4-1.9-2.8-5.4-0.9-7.8l42.4-54c1.9-2.4,5.4-2.8,7.8-0.9
				c2.4,1.9,2.8,5.4,0.9,7.8l-42.4,54C704.1,198.6,702.5,199.4,700.8,199.4z"/>
		</g>
	</g>
	<g>
		<g>
			<path class="st1" d="M712.7,208.8c-1.2,0-2.4-0.4-3.4-1.2c-2.4-1.9-2.8-5.4-0.9-7.8l42.5-54.1c1.9-2.4,5.4-2.8,7.8-0.9
				c2.4,1.9,2.8,5.4,0.9,7.8L717,206.7C715.9,208,714.3,208.8,712.7,208.8z"/>
		</g>
	</g>
	<g>
		<g>
			<path class="st2" d="M718.7,201.3"/>
		</g>
	</g>
	<g>
		<g>
			<path class="st1" d="M700.7,199.6c-0.2,0-0.4,0-0.7,0c-3-0.4-5.2-3.1-4.9-6.2l12.5-106.3c0.4-3,3.1-5.2,6.2-4.9
				c3,0.4,5.2,3.1,4.9,6.2l-12.5,106.3C705.8,197.6,703.4,199.6,700.7,199.6z"/>
		</g>
	</g>
</g>
<g>
	<g>
		<g>
			<path class="st1" d="M419.2,948c-2,0-4-0.5-5.8-1.4c-3.9-1.9-6.5-5.6-6.9-9.9L394.8,835c-0.6-4.9,1.7-9.6,6-12.2
				c4.4-2.7,9.7-2.5,13.9,0.3l86.4,57.9c3.6,2.4,5.7,6.5,5.6,10.8s-2.5,8.3-6.3,10.5L472.2,919l-5.6-9.6l28.2-16.5
				c0.6-0.4,0.8-0.9,0.8-1.2c0-0.4-0.1-0.9-0.7-1.3l-86.4-57.9c-0.9-0.6-1.7-0.2-2,0c-0.6,0.3-0.8,0.8-0.7,1.4l11.7,101.7
				c0.1,0.7,0.5,1,0.9,1.2c0.3,0.1,1,0.4,1.8-0.1l29-17l5.6,9.6l-29,17C423.7,947.4,421.4,948,419.2,948z"/>
		</g>
	</g>
	<g>
		<g>
			<path class="st1" d="M475.2,963.2c-7.1,0-14-3.5-17.9-9.9l-14.4-23.5l9.5-5.8l14.4,23.5c2.8,4.5,8.8,5.9,13.4,3.2
				c2.2-1.3,3.8-3.4,4.4-5.8c0.6-2.4,0.2-4.8-1.1-6.9l-14.4-23.5l9.5-5.8l14.4,23.5c2.9,4.7,3.7,10.1,2.4,15.4
				c-1.3,5.4-4.7,9.9-9.5,12.7C482.5,962.3,478.8,963.2,475.2,963.2z"/>
		</g>
	</g>
</g>
<g>
	<g>
		<path class="st1" d="M648.9,454.4c-9.5,0-17.2-7.6-17.2-17s7.7-17,17.2-17s17.2,7.6,17.2,17S658.4,454.4,648.9,454.4z
			 M648.9,431.6c-3.4,0-6.1,2.6-6.1,5.9s2.7,5.9,6.1,5.9c3.4,0,6.1-2.6,6.1-5.9S652.2,431.6,648.9,431.6z"/>
	</g>
</g>
<g>
	<g>
		<path class="st1" d="M602.9,454.4c-9.5,0-17.2-7.6-17.2-17s7.7-17,17.2-17s17.2,7.6,17.2,17S612.4,454.4,602.9,454.4z
			 M602.9,431.6c-3.4,0-6.1,2.6-6.1,5.9s2.7,5.9,6.1,5.9c3.4,0,6.1-2.6,6.1-5.9S606.3,431.6,602.9,431.6z"/>
	</g>
</g>
<g>
	<g>
		<path class="st1" d="M560.1,454.4c-9.5,0-17.2-7.6-17.2-17s7.7-17,17.2-17s17.2,7.6,17.2,17S569.6,454.4,560.1,454.4z
			 M560.1,431.6c-3.4,0-6.1,2.6-6.1,5.9s2.7,5.9,6.1,5.9c3.4,0,6.1-2.6,6.1-5.9S563.5,431.6,560.1,431.6z"/>
	</g>
</g>
<g>
	<g>
		<path class="st1" d="M573.4,950.8c-2.9,0-5.3-2.2-5.5-5.2c-3.6-53.4-31.9-104.5-75.9-136.5c-2.5-1.8-3-5.3-1.2-7.8s5.3-3,7.8-1.2
			c46.6,34,76.6,88.1,80.4,144.8c0.2,3.1-2.1,5.7-5.2,5.9C573.7,950.8,573.5,950.8,573.4,950.8z"/>
	</g>
</g>
<g>
	<g>
		<path class="st1" d="M862.2,714.3c-3.1,0-5.6-2.5-5.6-5.6V306c0-11.7-9.5-21.2-21.2-21.2H712.7c-3.1,0-5.6-2.5-5.6-5.6
			s2.5-5.6,5.6-5.6h122.8c17.8,0,32.3,14.5,32.3,32.3v402.7C867.8,711.8,865.3,714.3,862.2,714.3z"/>
	</g>
</g>
<g>
	<g>
		<path class="st1" d="M654.5,284.8H319.2c-3.1,0-5.6-2.5-5.6-5.6s2.5-5.6,5.6-5.6h335.3c3.1,0,5.6,2.5,5.6,5.6
			S657.6,284.8,654.5,284.8z"/>
	</g>
</g>
<g>
	<g>
		<path class="st1" d="M141,714.3c-3.1,0-5.6-2.5-5.6-5.6V306.1c0-17.8,14.5-32.3,32.3-32.3h52.6c3.1,0,5.6,2.5,5.6,5.6
			s-2.5,5.6-5.6,5.6h-52.6c-11.7,0-21.2,9.5-21.2,21.2v402.6C146.5,711.8,144,714.3,141,714.3z"/>
	</g>
</g>
<g>
	<g>
		<path class="st1" d="M657.9,644.5H342.4c-17.8,0-32.2-14.4-32.2-32.2V435.8c0-17.8,14.4-32.2,32.2-32.2h315.5
			c17.8,0,32.2,14.4,32.2,32.2v176.5C690.1,630,675.7,644.5,657.9,644.5z M342.4,414.7c-11.6,0-21.1,9.5-21.1,21.1v176.5
			c0,11.6,9.5,21.1,21.1,21.1h315.5c11.6,0,21.1-9.5,21.1-21.1V435.8c0-11.6-9.5-21.1-21.1-21.1L342.4,414.7L342.4,414.7z"/>
	</g>
</g>
<g>
	<g>
		<rect x="317.2" y="461.9" class="st1" width="368.8" height="11.1"/>
	</g>
</g>
<g>
	<g>
		<g>
			<path class="st1" d="M468.1,578.4c0-1.6,0.2-5.9,0.2-7.7c0-7.9-2.8-11.4-10.1-11.6c-3.4-0.2-5.5-2.3-5.5-5.2s2-5,5.5-5.2
				c7.3-0.3,10.1-3.8,10.1-11.7c0-1.8-0.2-6.1-0.2-7.7c0-10.4,4.4-17.1,21.1-20.8c3.3-0.8,5.9,1.3,5.9,4.4c0,2.6-1.7,4-3,4.4
				c-10.4,3.2-11.9,6.6-11.9,13.9c0,2.2,0.2,5.7,0.2,8c0,8.4-4.1,12.5-11.2,14.7c7.2,2.4,11.2,6.3,11.2,14.7c0,2.3-0.2,5.8-0.2,8
				c0,7.3,1.5,10.7,11.9,13.9c1.3,0.4,3,1.8,3,4.4c0,3.1-2.6,5.2-5.9,4.4C472.5,595.6,468.1,589,468.1,578.4z"/>
		</g>
	</g>
	<g>
		<g>
			<path class="st1" d="M532.2,529.3c0,1.6-0.2,5.9-0.2,7.7c0,8,2.9,11.4,10.2,11.7c3.3,0.2,5.4,2.3,5.4,5.2s-2,4.9-5.4,5.2
				c-7.3,0.2-10.2,3.8-10.2,11.6c0,1.8,0.2,6.1,0.2,7.7c0,10.5-4.4,17.2-21.1,20.9c-3.3,0.8-5.9-1.3-5.9-4.4c0-2.6,1.7-4,3.1-4.4
				c10.3-3.2,11.8-6.6,11.8-13.9c0-2.2-0.2-5.7-0.2-8c0-8.4,4.1-12.5,11.2-14.7c-7.2-2.4-11.2-6.3-11.2-14.7c0-2.3,0.2-5.8,0.2-8
				c0-7.3-1.5-10.7-11.8-13.9c-1.4-0.4-3.1-1.8-3.1-4.4c0-3.1,2.6-5.2,5.9-4.4C527.8,512.1,532.2,518.8,532.2,529.3z"/>
		</g>
	</g>
</g>
<g>
	<g>
		<path class="st1" d="M848.4,712c-1.8,0-3.3-1.5-3.3-3.3V306c0-12.9-8.7-23.4-19.5-23.4H720.9c-1.8,0-3.3-1.5-3.3-3.3
			s1.5-3.3,3.3-3.3h104.6c14.4,0,26.1,13.5,26.1,30.1v402.7C851.7,710.5,850.2,712,848.4,712z"/>
	</g>
</g>
<g>
	<g>
		<path class="st1" d="M501.6,790.1c-128.4,0-256.8-1.9-384.3-5.6c-17.7-0.5-32-15.3-32-33v-15.7c0-8.6,3.4-16.6,9.5-22.5
			c6.1-6,14.2-9.1,22.9-8.8c254.8,7.5,513.2,7.5,768,0c8.6-0.2,16.7,2.9,22.9,8.8c6.1,5.9,9.5,14,9.5,22.5v15.7
			c0,17.7-14.4,32.5-32,33l0,0C758.4,788.2,630,790.1,501.6,790.1z M116.6,715.5c-5.3,0-10.4,2-14.2,5.7c-4,3.8-6.1,9-6.1,14.6v15.7
			c0,11.7,9.5,21.6,21.3,21.9c254.8,7.5,513.2,7.5,768,0l0,0c11.7-0.3,21.3-10.2,21.3-21.9v-15.7c0-5.6-2.2-10.7-6.1-14.6
			c-4-3.8-9.2-5.9-14.8-5.7c-255,7.5-513.6,7.5-768.6,0C117.1,715.5,116.9,715.5,116.6,715.5z"/>
	</g>
</g>
<g>
	<g>
		<path class="st1" d="M501.6,736.1c-137.3,0-274.6-2.1-410.9-6.4l0.2-6.7c272.5,8.6,548.9,8.6,821.4,0l0.2,6.7
			C776.2,733.9,638.9,736.1,501.6,736.1z"/>
	</g>
</g>
<g>
	<path class="st3" d="M213,754c-0.3,6.1,3.9,11.2,9.3,11.3l76.2,1.5c5.4,0.1,10-4.8,10.2-10.9c0.3-6.1-3.9-11.2-9.3-11.3l-76.2-1.5
		C217.8,743,213.2,747.9,213,754z"/>
</g>
<g>
	<path class="st3" d="M184.1,764.2l7.5,0.2c6.1,0.2,11.3-4.6,11.5-10.7s-4.6-11.3-10.7-11.5l-7.5-0.2c-6.1-0.2-11.3,4.6-11.5,10.7
		C173.1,758.8,177.9,764,184.1,764.2z"/>
</g>
</svg>
